<svg width="68" height="68" viewBox="0 0 68 68" fill="none" xmlns="http://www.w3.org/2000/svg">
<g clip-path="url(#clip0_1331_1338)">
<path d="M0.250732 0.25H67.6173V67.6166H0.250732V0.25Z" fill="white"/>
<path d="M0.250732 0.25H16.5116V2.57298H0.250732V0.25ZM18.8346 0.25H23.4806V2.57298H18.8346V0.25ZM28.1266 0.25H37.4185V2.57298H28.1266V0.25ZM39.7415 0.25H49.0334V2.57298H39.7415V0.25ZM51.3564 0.25H67.6173V2.57298H51.3564V0.25ZM0.250732 2.57298H2.57372V4.89597H0.250732V2.57298ZM14.1886 2.57298H16.5116V4.89597H14.1886V2.57298ZM18.8346 2.57298H21.1576V4.89597H18.8346V2.57298ZM25.8036 2.57298H28.1266V4.89597H25.8036V2.57298ZM30.4495 2.57298H32.7725V4.89597H30.4495V2.57298ZM37.4185 2.57298H44.3874V4.89597H37.4185V2.57298ZM46.7104 2.57298H49.0334V4.89597H46.7104V2.57298ZM51.3564 2.57298H53.6794V4.89597H51.3564V2.57298ZM65.2943 2.57298H67.6173V4.89597H65.2943V2.57298ZM0.250732 4.89597H2.57372V7.21895H0.250732V4.89597ZM4.8967 4.89597H11.8657V7.21895H4.8967V4.89597ZM14.1886 4.89597H16.5116V7.21895H14.1886V4.89597ZM21.1576 4.89597H28.1266V7.21895H21.1576V4.89597ZM37.4185 4.89597H39.7415V7.21895H37.4185V4.89597ZM46.7104 4.89597H49.0334V7.21895H46.7104V4.89597ZM51.3564 4.89597H53.6794V7.21895H51.3564V4.89597ZM56.0024 4.89597H62.9713V7.21895H56.0024V4.89597ZM65.2943 4.89597H67.6173V7.21895H65.2943V4.89597ZM0.250732 7.21895H2.57372V9.54194H0.250732V7.21895ZM4.8967 7.21895H11.8657V9.54194H4.8967V7.21895ZM14.1886 7.21895H16.5116V9.54194H14.1886V7.21895ZM18.8346 7.21895H23.4806V9.54194H18.8346V7.21895ZM28.1266 7.21895H30.4495V9.54194H28.1266V7.21895ZM32.7725 7.21895H37.4185V9.54194H32.7725V7.21895ZM39.7415 7.21895H42.0645V9.54194H39.7415V7.21895ZM44.3874 7.21895H46.7104V9.54194H44.3874V7.21895ZM51.3564 7.21895H53.6794V9.54194H51.3564V7.21895ZM56.0024 7.21895H62.9713V9.54194H56.0024V7.21895ZM65.2943 7.21895H67.6173V9.54194H65.2943V7.21895ZM0.250732 9.54194H2.57372V11.8649H0.250732V9.54194ZM4.8967 9.54194H11.8657V11.8649H4.8967V9.54194ZM14.1886 9.54194H16.5116V11.8649H14.1886V9.54194ZM23.4806 9.54194H25.8036V11.8649H23.4806V9.54194ZM28.1266 9.54194H30.4495V11.8649H28.1266V9.54194ZM32.7725 9.54194H35.0955V11.8649H32.7725V9.54194ZM37.4185 9.54194H39.7415V11.8649H37.4185V9.54194ZM44.3874 9.54194H49.0334V11.8649H44.3874V9.54194ZM51.3564 9.54194H53.6794V11.8649H51.3564V9.54194ZM56.0024 9.54194H62.9713V11.8649H56.0024V9.54194ZM65.2943 9.54194H67.6173V11.8649H65.2943V9.54194ZM0.250732 11.8649H2.57372V14.1879H0.250732V11.8649ZM14.1886 11.8649H16.5116V14.1879H14.1886V11.8649ZM21.1576 11.8649H23.4806V14.1879H21.1576V11.8649ZM25.8036 11.8649H32.7725V14.1879H25.8036V11.8649ZM35.0955 11.8649H39.7415V14.1879H35.0955V11.8649ZM44.3874 11.8649H46.7104V14.1879H44.3874V11.8649ZM51.3564 11.8649H53.6794V14.1879H51.3564V11.8649ZM65.2943 11.8649H67.6173V14.1879H65.2943V11.8649ZM0.250732 14.1879H16.5116V16.5109H0.250732V14.1879ZM18.8346 14.1879H21.1576V16.5109H18.8346V14.1879ZM23.4806 14.1879H25.8036V16.5109H23.4806V14.1879ZM28.1266 14.1879H30.4495V16.5109H28.1266V14.1879ZM32.7725 14.1879H35.0955V16.5109H32.7725V14.1879ZM37.4185 14.1879H39.7415V16.5109H37.4185V14.1879ZM42.0645 14.1879H44.3874V16.5109H42.0645V14.1879ZM46.7104 14.1879H49.0334V16.5109H46.7104V14.1879ZM51.3564 14.1879H67.6173V16.5109H51.3564V14.1879ZM18.8346 16.5109H21.1576V18.8339H18.8346V16.5109ZM28.1266 16.5109H30.4495V18.8339H28.1266V16.5109ZM35.0955 16.5109H44.3874V18.8339H35.0955V16.5109ZM46.7104 16.5109H49.0334V18.8339H46.7104V16.5109ZM0.250732 18.8339H2.57372V21.1569H0.250732V18.8339ZM4.8967 18.8339H9.54267V21.1569H4.8967V18.8339ZM11.8657 18.8339H18.8346V21.1569H11.8657V18.8339ZM21.1576 18.8339H23.4806V21.1569H21.1576V18.8339ZM25.8036 18.8339H28.1266V21.1569H25.8036V18.8339ZM30.4495 18.8339H32.7725V21.1569H30.4495V18.8339ZM35.0955 18.8339H37.4185V21.1569H35.0955V18.8339ZM39.7415 18.8339H49.0334V21.1569H39.7415V18.8339ZM51.3564 18.8339H53.6794V21.1569H51.3564V18.8339ZM58.3254 18.8339H60.6483V21.1569H58.3254V18.8339ZM62.9713 18.8339H67.6173V21.1569H62.9713V18.8339ZM0.250732 21.1569H2.57372V23.4798H0.250732V21.1569ZM16.5116 21.1569H18.8346V23.4798H16.5116V21.1569ZM21.1576 21.1569H25.8036V23.4798H21.1576V21.1569ZM28.1266 21.1569H37.4185V23.4798H28.1266V21.1569ZM39.7415 21.1569H49.0334V23.4798H39.7415V21.1569ZM51.3564 21.1569H58.3254V23.4798H51.3564V21.1569ZM65.2943 21.1569H67.6173V23.4798H65.2943V21.1569ZM2.57372 23.4798H7.21969V25.8028H2.57372V23.4798ZM11.8657 23.4798H16.5116V25.8028H11.8657V23.4798ZM23.4806 23.4798H28.1266V25.8028H23.4806V23.4798ZM30.4495 23.4798H32.7725V25.8028H30.4495V23.4798ZM37.4185 23.4798H39.7415V25.8028H37.4185V23.4798ZM42.0645 23.4798H44.3874V25.8028H42.0645V23.4798ZM46.7104 23.4798H49.0334V25.8028H46.7104V23.4798ZM53.6794 23.4798H56.0024V25.8028H53.6794V23.4798ZM60.6483 23.4798H65.2943V25.8028H60.6483V23.4798ZM0.250732 25.8028H2.57372V28.1258H0.250732V25.8028ZM7.21969 25.8028H14.1886V28.1258H7.21969V25.8028ZM16.5116 25.8028H18.8346V28.1258H16.5116V25.8028ZM21.1576 25.8028H23.4806V28.1258H21.1576V25.8028ZM37.4185 25.8028H39.7415V28.1258H37.4185V25.8028ZM44.3874 25.8028H46.7104V28.1258H44.3874V25.8028ZM65.2943 25.8028H67.6173V28.1258H65.2943V25.8028ZM0.250732 28.1258H7.21969V30.4488H0.250732V28.1258ZM9.54267 28.1258H11.8657V30.4488H9.54267V28.1258ZM14.1886 28.1258H16.5116V30.4488H14.1886V28.1258ZM21.1576 28.1258H23.4806V30.4488H21.1576V28.1258ZM28.1266 28.1258H30.4495V30.4488H28.1266V28.1258ZM32.7725 28.1258H37.4185V30.4488H32.7725V28.1258ZM39.7415 28.1258H42.0645V30.4488H39.7415V28.1258ZM46.7104 28.1258H49.0334V30.4488H46.7104V28.1258ZM53.6794 28.1258H56.0024V30.4488H53.6794V28.1258ZM58.3254 28.1258H62.9713V30.4488H58.3254V28.1258ZM0.250732 30.4488H4.8967V32.7718H0.250732V30.4488ZM9.54267 30.4488H11.8657V32.7718H9.54267V30.4488ZM21.1576 30.4488H30.4495V32.7718H21.1576V30.4488ZM32.7725 30.4488H35.0955V32.7718H32.7725V30.4488ZM37.4185 30.4488H39.7415V32.7718H37.4185V30.4488ZM44.3874 30.4488H46.7104V32.7718H44.3874V30.4488ZM51.3564 30.4488H53.6794V32.7718H51.3564V30.4488ZM60.6483 30.4488H67.6173V32.7718H60.6483V30.4488ZM4.8967 32.7718H7.21969V35.0948H4.8967V32.7718ZM14.1886 32.7718H16.5116V35.0948H14.1886V32.7718ZM18.8346 32.7718H28.1266V35.0948H18.8346V32.7718ZM30.4495 32.7718H32.7725V35.0948H30.4495V32.7718ZM35.0955 32.7718H42.0645V35.0948H35.0955V32.7718ZM44.3874 32.7718H49.0334V35.0948H44.3874V32.7718ZM51.3564 32.7718H53.6794V35.0948H51.3564V32.7718ZM60.6483 32.7718H67.6173V35.0948H60.6483V32.7718ZM0.250732 35.0948H2.57372V37.4178H0.250732V35.0948ZM7.21969 35.0948H11.8657V37.4178H7.21969V35.0948ZM18.8346 35.0948H21.1576V37.4178H18.8346V35.0948ZM23.4806 35.0948H30.4495V37.4178H23.4806V35.0948ZM32.7725 35.0948H35.0955V37.4178H32.7725V35.0948ZM37.4185 35.0948H39.7415V37.4178H37.4185V35.0948ZM56.0024 35.0948H58.3254V37.4178H56.0024V35.0948ZM62.9713 35.0948H65.2943V37.4178H62.9713V35.0948ZM2.57372 37.4178H4.8967V39.7407H2.57372V37.4178ZM14.1886 37.4178H21.1576V39.7407H14.1886V37.4178ZM25.8036 37.4178H30.4495V39.7407H25.8036V37.4178ZM32.7725 37.4178H39.7415V39.7407H32.7725V37.4178ZM46.7104 37.4178H51.3564V39.7407H46.7104V37.4178ZM56.0024 37.4178H60.6483V39.7407H56.0024V37.4178ZM62.9713 37.4178H65.2943V39.7407H62.9713V37.4178ZM2.57372 39.7407H14.1886V42.0637H2.57372V39.7407ZM32.7725 39.7407H35.0955V42.0637H32.7725V39.7407ZM37.4185 39.7407H42.0645V42.0637H37.4185V39.7407ZM46.7104 39.7407H49.0334V42.0637H46.7104V39.7407ZM53.6794 39.7407H56.0024V42.0637H53.6794V39.7407ZM58.3254 39.7407H65.2943V42.0637H58.3254V39.7407ZM0.250732 42.0637H2.57372V44.3867H0.250732V42.0637ZM4.8967 42.0637H7.21969V44.3867H4.8967V42.0637ZM14.1886 42.0637H23.4806V44.3867H14.1886V42.0637ZM25.8036 42.0637H28.1266V44.3867H25.8036V42.0637ZM30.4495 42.0637H42.0645V44.3867H30.4495V42.0637ZM53.6794 42.0637H58.3254V44.3867H53.6794V42.0637ZM60.6483 42.0637H62.9713V44.3867H60.6483V42.0637ZM4.8967 44.3867H7.21969V46.7097H4.8967V44.3867ZM11.8657 44.3867H14.1886V46.7097H11.8657V44.3867ZM18.8346 44.3867H21.1576V46.7097H18.8346V44.3867ZM23.4806 44.3867H25.8036V46.7097H23.4806V44.3867ZM28.1266 44.3867H35.0955V46.7097H28.1266V44.3867ZM39.7415 44.3867H46.7104V46.7097H39.7415V44.3867ZM53.6794 44.3867H56.0024V46.7097H53.6794V44.3867ZM60.6483 44.3867H62.9713V46.7097H60.6483V44.3867ZM2.57372 46.7097H7.21969V49.0327H2.57372V46.7097ZM14.1886 46.7097H18.8346V49.0327H14.1886V46.7097ZM30.4495 46.7097H35.0955V49.0327H30.4495V46.7097ZM37.4185 46.7097H44.3874V49.0327H37.4185V46.7097ZM46.7104 46.7097H62.9713V49.0327H46.7104V46.7097ZM18.8346 49.0327H21.1576V51.3557H18.8346V49.0327ZM23.4806 49.0327H25.8036V51.3557H23.4806V49.0327ZM28.1266 49.0327H30.4495V51.3557H28.1266V49.0327ZM35.0955 49.0327H39.7415V51.3557H35.0955V49.0327ZM46.7104 49.0327H49.0334V51.3557H46.7104V49.0327ZM56.0024 49.0327H67.6173V51.3557H56.0024V49.0327ZM0.250732 51.3557H16.5116V53.6787H0.250732V51.3557ZM18.8346 51.3557H21.1576V53.6787H18.8346V51.3557ZM32.7725 51.3557H37.4185V53.6787H32.7725V51.3557ZM42.0645 51.3557H49.0334V53.6787H42.0645V51.3557ZM51.3564 51.3557H53.6794V53.6787H51.3564V51.3557ZM56.0024 51.3557H60.6483V53.6787H56.0024V51.3557ZM62.9713 51.3557H65.2943V53.6787H62.9713V51.3557ZM0.250732 53.6787H2.57372V56.0016H0.250732V53.6787ZM14.1886 53.6787H16.5116V56.0016H14.1886V53.6787ZM18.8346 53.6787H21.1576V56.0016H18.8346V53.6787ZM23.4806 53.6787H28.1266V56.0016H23.4806V53.6787ZM30.4495 53.6787H37.4185V56.0016H30.4495V53.6787ZM42.0645 53.6787H49.0334V56.0016H42.0645V53.6787ZM56.0024 53.6787H60.6483V56.0016H56.0024V53.6787ZM0.250732 56.0016H2.57372V58.3246H0.250732V56.0016ZM4.8967 56.0016H11.8657V58.3246H4.8967V56.0016ZM14.1886 56.0016H16.5116V58.3246H14.1886V56.0016ZM21.1576 56.0016H23.4806V58.3246H21.1576V56.0016ZM25.8036 56.0016H30.4495V58.3246H25.8036V56.0016ZM39.7415 56.0016H42.0645V58.3246H39.7415V56.0016ZM46.7104 56.0016H58.3254V58.3246H46.7104V56.0016ZM60.6483 56.0016H62.9713V58.3246H60.6483V56.0016ZM65.2943 56.0016H67.6173V58.3246H65.2943V56.0016ZM0.250732 58.3246H2.57372V60.6476H0.250732V58.3246ZM4.8967 58.3246H11.8657V60.6476H4.8967V58.3246ZM14.1886 58.3246H16.5116V60.6476H14.1886V58.3246ZM18.8346 58.3246H23.4806V60.6476H18.8346V58.3246ZM30.4495 58.3246H32.7725V60.6476H30.4495V58.3246ZM39.7415 58.3246H42.0645V60.6476H39.7415V58.3246ZM49.0334 58.3246H51.3564V60.6476H49.0334V58.3246ZM53.6794 58.3246H60.6483V60.6476H53.6794V58.3246ZM62.9713 58.3246H65.2943V60.6476H62.9713V58.3246ZM0.250732 60.6476H2.57372V62.9706H0.250732V60.6476ZM4.8967 60.6476H11.8657V62.9706H4.8967V60.6476ZM14.1886 60.6476H16.5116V62.9706H14.1886V60.6476ZM18.8346 60.6476H23.4806V62.9706H18.8346V60.6476ZM28.1266 60.6476H32.7725V62.9706H28.1266V60.6476ZM37.4185 60.6476H39.7415V62.9706H37.4185V60.6476ZM42.0645 60.6476H46.7104V62.9706H42.0645V60.6476ZM53.6794 60.6476H56.0024V62.9706H53.6794V60.6476ZM60.6483 60.6476H62.9713V62.9706H60.6483V60.6476ZM65.2943 60.6476H67.6173V62.9706H65.2943V60.6476ZM0.250732 62.9706H2.57372V65.2936H0.250732V62.9706ZM14.1886 62.9706H16.5116V65.2936H14.1886V62.9706ZM21.1576 62.9706H35.0955V65.2936H21.1576V62.9706ZM44.3874 62.9706H51.3564V65.2936H44.3874V62.9706ZM56.0024 62.9706H60.6483V65.2936H56.0024V62.9706ZM62.9713 62.9706H65.2943V65.2936H62.9713V62.9706ZM0.250732 65.2936H16.5116V67.6166H0.250732V65.2936ZM18.8346 65.2936H23.4806V67.6166H18.8346V65.2936ZM25.8036 65.2936H30.4495V67.6166H25.8036V65.2936ZM32.7725 65.2936H35.0955V67.6166H32.7725V65.2936ZM42.0645 65.2936H51.3564V67.6166H42.0645V65.2936ZM62.9713 65.2936H65.2943V67.6166H62.9713V65.2936Z" fill="black"/>
</g>
<defs>
<clipPath id="clip0_1331_1338">
<rect width="67.3666" height="67.3666" fill="white" transform="translate(0.250732 0.25)"/>
</clipPath>
</defs>
</svg>
