<svg width="18" height="11" viewBox="0 0 18 11" fill="none" xmlns="http://www.w3.org/2000/svg">
    <path d="M6.235 1.166h4.62V9.74h-4.62V1.166Z" fill="#fff"/>
    <path
        d="M6.528 5.455c-.001-.826.18-1.641.53-2.384a5.414 5.414 0 0 1 1.487-1.904 5.19 5.19 0 0 0-2.7-1.135c-.985-.11-1.98.07-2.872.517A5.343 5.343 0 0 0 .805 2.561 5.586 5.586 0 0 0 0 5.455C0 6.478.279 7.48.805 8.348a5.344 5.344 0 0 0 2.168 2.012 5.135 5.135 0 0 0 2.872.517 5.19 5.19 0 0 0 2.7-1.135 5.414 5.414 0 0 1-1.487-1.904 5.591 5.591 0 0 1-.53-2.383Z"
        fill="#B5C2DC"/>
    <path
        d="M17.09 5.452a5.585 5.585 0 0 1-.804 2.894 5.342 5.342 0 0 1-2.168 2.012 5.134 5.134 0 0 1-2.872.517 5.19 5.19 0 0 1-2.7-1.136 5.426 5.426 0 0 0 1.486-1.904 5.603 5.603 0 0 0 0-4.765 5.426 5.426 0 0 0-1.485-1.905 5.19 5.19 0 0 1 2.7-1.134c.984-.109 1.98.07 2.87.517a5.344 5.344 0 0 1 2.168 2.012c.526.867.805 1.87.805 2.892Zm-.503 3.376v-.17h.069v-.035h-.175v.035h.07v.175l.036-.005Zm.338 0v-.211h-.053l-.062.145-.061-.145h-.054v.211h.038v-.16l.058.138h.039l.058-.138v.16h.037Z"
        fill="#fff"/>
</svg>
