<svg width="19" height="7" viewBox="0 0 19 7" fill="#fff" xmlns="http://www.w3.org/2000/svg">
    <path
        d="M8.236 5.989h-1.55L7.654.105h1.55L8.236 5.99ZM5.382.108 3.904 4.154l-.175-.87L3.205.636a.654.654 0 0 0-.26-.409.67.67 0 0 0-.475-.12H.03L0 .208c.572.14 1.12.368 1.622.673l1.342 5.108H4.58L7.047.105 5.382.108ZM17.577 5.988H19L17.76.105h-1.247a.72.72 0 0 0-.716.438l-2.311 5.445h1.616l.323-.874h1.966l.186.874Zm-1.704-2.081.816-2.201.458 2.2h-1.273ZM13.604 1.522 13.825.26A4.525 4.525 0 0 0 12.431 0c-.77 0-2.597.333-2.597 1.942 0 1.52 2.145 1.539 2.145 2.336 0 .798-1.924.655-2.558.152l-.23 1.32a4.39 4.39 0 0 0 1.75.333c1.058 0 2.655-.541 2.655-2.014 0-1.53-2.163-1.673-2.163-2.337 0-.664 1.508-.567 2.171-.21Z"/>
</svg>
